<svg width="168" height="61" viewBox="0 0 168 61" fill="none" xmlns="http://www.w3.org/2000/svg">
<path d="M19.488 12.344C19.4027 13.24 19.3387 14.1147 19.296 14.968C19.2747 15.8 19.264 16.44 19.264 16.888C19.264 17.3787 19.2747 17.848 19.296 18.296C19.3173 18.744 19.3387 19.128 19.36 19.448H18.624C18.4107 17.848 18.1227 16.5893 17.76 15.672C17.4187 14.7547 16.9173 14.0933 16.256 13.688C15.5947 13.2827 14.6453 13.08 13.408 13.08H12.032V31.32C12.032 32.1733 12.1067 32.8133 12.256 33.24C12.4267 33.6667 12.7467 33.9547 13.216 34.104C13.7067 34.232 14.4107 34.3173 15.328 34.36V35C14.7307 34.9573 13.9627 34.936 13.024 34.936C12.0853 34.9147 11.1253 34.904 10.144 34.904C9.12 34.904 8.14933 34.9147 7.232 34.936C6.336 34.936 5.61067 34.9573 5.056 35V34.36C5.97333 34.3173 6.66667 34.232 7.136 34.104C7.60533 33.9547 7.92533 33.6667 8.096 33.24C8.26667 32.8133 8.352 32.1733 8.352 31.32V13.08H6.944C5.74933 13.08 4.81067 13.2827 4.128 13.688C3.44533 14.0933 2.93333 14.7547 2.592 15.672C2.25067 16.5893 1.97333 17.848 1.76 19.448H1.024C1.06667 19.128 1.088 18.744 1.088 18.296C1.10933 17.848 1.12 17.3787 1.12 16.888C1.12 16.44 1.09867 15.8 1.056 14.968C1.03467 14.1147 0.981333 13.24 0.896 12.344C1.81333 12.3653 2.816 12.3867 3.904 12.408C4.992 12.4293 6.09067 12.44 7.2 12.44C8.30933 12.44 9.312 12.44 10.208 12.44C11.104 12.44 12.096 12.44 13.184 12.44C14.272 12.44 15.3707 12.4293 16.48 12.408C17.5893 12.3867 18.592 12.3653 19.488 12.344ZM27.863 18.488V19.16C27.351 19.16 26.8923 19.2027 26.487 19.288C26.103 19.352 25.847 19.544 25.719 19.864C25.6123 20.184 25.6977 20.7493 25.975 21.56L29.207 31.096L28.919 31.224L33.303 18.392L33.943 18.68L28.407 35.128C28.2363 35.128 28.0657 35.128 27.895 35.128C27.7243 35.128 27.543 35.128 27.351 35.128L22.167 20.952C21.8257 20.0987 21.4843 19.5867 21.143 19.416C20.823 19.2453 20.5457 19.16 20.311 19.16V18.488C20.823 18.552 21.3457 18.6053 21.879 18.648C22.4337 18.6693 23.0417 18.68 23.703 18.68C24.3643 18.68 25.0577 18.6587 25.783 18.616C26.5297 18.5733 27.223 18.5307 27.863 18.488ZM45.143 18.488V19.128C44.7377 19.192 44.3537 19.3947 43.991 19.736C43.6283 20.0773 43.3083 20.6853 43.031 21.56L38.519 35.128C38.3483 35.128 38.167 35.128 37.975 35.128C37.8043 35.128 37.6337 35.128 37.463 35.128L32.503 22.296L33.303 18.392C33.5163 18.4133 33.719 18.424 33.911 18.424C34.1243 18.4027 34.3377 18.392 34.551 18.392L39.351 31.512L39.063 31.544L41.879 22.84C42.1563 21.9653 42.263 21.272 42.199 20.76C42.135 20.248 41.911 19.864 41.527 19.608C41.143 19.352 40.567 19.192 39.799 19.128V18.488C40.183 18.5093 40.5243 18.5307 40.823 18.552C41.143 18.552 41.4523 18.5627 41.751 18.584C42.071 18.584 42.391 18.584 42.711 18.584C43.1803 18.584 43.6177 18.5733 44.023 18.552C44.4497 18.5307 44.823 18.5093 45.143 18.488ZM53.739 18.04C55.1683 18.04 56.4377 18.3387 57.547 18.936C58.6563 19.5333 59.5417 20.472 60.203 21.752C60.8643 23.032 61.195 24.7067 61.195 26.776C61.195 28.8453 60.8643 30.52 60.203 31.8C59.5417 33.0587 58.6563 33.9867 57.547 34.584C56.4377 35.16 55.1683 35.448 53.739 35.448C52.331 35.448 51.0617 35.16 49.931 34.584C48.8003 33.9867 47.9043 33.0587 47.243 31.8C46.603 30.52 46.283 28.8453 46.283 26.776C46.283 24.7067 46.603 23.032 47.243 21.752C47.9043 20.472 48.8003 19.5333 49.931 18.936C51.0617 18.3387 52.331 18.04 53.739 18.04ZM53.739 18.68C52.6297 18.68 51.723 19.32 51.019 20.6C50.315 21.8587 49.963 23.9173 49.963 26.776C49.963 29.6347 50.315 31.6933 51.019 32.952C51.723 34.1893 52.6297 34.808 53.739 34.808C54.827 34.808 55.723 34.1893 56.427 32.952C57.1523 31.6933 57.515 29.6347 57.515 26.776C57.515 23.9173 57.1523 21.8587 56.427 20.6C55.723 19.32 54.827 18.68 53.739 18.68ZM97.6383 12.344V12.984C96.9129 13.0053 96.3689 13.0907 96.0063 13.24C95.6436 13.368 95.3983 13.624 95.2703 14.008C95.1636 14.3707 95.1103 14.9467 95.1103 15.736V31.608C95.1103 32.376 95.1636 32.952 95.2703 33.336C95.3983 33.72 95.6436 33.976 96.0063 34.104C96.3689 34.232 96.9129 34.3173 97.6383 34.36V35C97.1049 34.9573 96.4436 34.936 95.6543 34.936C94.8649 34.9147 94.0649 34.904 93.2543 34.904C92.3583 34.904 91.5156 34.9147 90.7263 34.936C89.9369 34.936 89.3076 34.9573 88.8383 35V34.36C89.5636 34.3173 90.1076 34.232 90.4703 34.104C90.8543 33.976 91.1103 33.72 91.2383 33.336C91.3663 32.952 91.4303 32.376 91.4303 31.608V14.104L91.5903 14.168L83.7183 35.128H83.2063L74.9503 14.392V30.776C74.9503 31.672 75.0143 32.376 75.1423 32.888C75.2703 33.3787 75.5476 33.7307 75.9743 33.944C76.4009 34.1573 77.0516 34.296 77.9263 34.36V35C77.5209 34.9573 76.9983 34.936 76.3583 34.936C75.7396 34.9147 75.1529 34.904 74.5983 34.904C74.0649 34.904 73.5316 34.9147 72.9983 34.936C72.4649 34.936 72.0276 34.9573 71.6863 35V34.36C72.3903 34.296 72.9236 34.168 73.2863 33.976C73.6489 33.7627 73.8943 33.4107 74.0223 32.92C74.1503 32.4293 74.2143 31.7573 74.2143 30.904V15.736C74.2143 14.9467 74.1503 14.3707 74.0223 14.008C73.8943 13.624 73.6489 13.368 73.2863 13.24C72.9236 13.0907 72.3903 13.0053 71.6863 12.984V12.344C72.0276 12.3653 72.4649 12.3867 72.9983 12.408C73.5316 12.4293 74.0649 12.44 74.5983 12.44C75.2169 12.44 75.8356 12.4293 76.4543 12.408C77.0943 12.3867 77.6383 12.3653 78.0863 12.344L85.1583 30.52L84.5503 30.936L91.4943 12.44C91.7716 12.44 92.0596 12.44 92.3583 12.44C92.6569 12.44 92.9556 12.44 93.2543 12.44C94.0649 12.44 94.8649 12.4293 95.6543 12.408C96.4436 12.3867 97.1049 12.3653 97.6383 12.344ZM107.177 18.04C108.606 18.04 109.875 18.3387 110.985 18.936C112.094 19.5333 112.979 20.472 113.641 21.752C114.302 23.032 114.633 24.7067 114.633 26.776C114.633 28.8453 114.302 30.52 113.641 31.8C112.979 33.0587 112.094 33.9867 110.985 34.584C109.875 35.16 108.606 35.448 107.177 35.448C105.769 35.448 104.499 35.16 103.369 34.584C102.238 33.9867 101.342 33.0587 100.681 31.8C100.041 30.52 99.7205 28.8453 99.7205 26.776C99.7205 24.7067 100.041 23.032 100.681 21.752C101.342 20.472 102.238 19.5333 103.369 18.936C104.499 18.3387 105.769 18.04 107.177 18.04ZM107.177 18.68C106.067 18.68 105.161 19.32 104.457 20.6C103.753 21.8587 103.401 23.9173 103.401 26.776C103.401 29.6347 103.753 31.6933 104.457 32.952C105.161 34.1893 106.067 34.808 107.177 34.808C108.265 34.808 109.161 34.1893 109.865 32.952C110.59 31.6933 110.953 29.6347 110.953 26.776C110.953 23.9173 110.59 21.8587 109.865 20.6C109.161 19.32 108.265 18.68 107.177 18.68ZM124.895 18.04C126.325 18.04 127.594 18.3387 128.703 18.936C129.813 19.5333 130.698 20.472 131.359 21.752C132.021 23.032 132.351 24.7067 132.351 26.776C132.351 28.8453 132.021 30.52 131.359 31.8C130.698 33.0587 129.813 33.9867 128.703 34.584C127.594 35.16 126.325 35.448 124.895 35.448C123.487 35.448 122.218 35.16 121.087 34.584C119.957 33.9867 119.061 33.0587 118.399 31.8C117.759 30.52 117.439 28.8453 117.439 26.776C117.439 24.7067 117.759 23.032 118.399 21.752C119.061 20.472 119.957 19.5333 121.087 18.936C122.218 18.3387 123.487 18.04 124.895 18.04ZM124.895 18.68C123.786 18.68 122.879 19.32 122.175 20.6C121.471 21.8587 121.119 23.9173 121.119 26.776C121.119 29.6347 121.471 31.6933 122.175 32.952C122.879 34.1893 123.786 34.808 124.895 34.808C125.983 34.808 126.879 34.1893 127.583 32.952C128.309 31.6933 128.671 29.6347 128.671 26.776C128.671 23.9173 128.309 21.8587 127.583 20.6C126.879 19.32 125.983 18.68 124.895 18.68ZM145.75 18.04C146.603 18.04 147.297 18.1573 147.83 18.392C148.385 18.6053 148.843 18.904 149.206 19.288C149.59 19.6933 149.857 20.216 150.006 20.856C150.177 21.496 150.262 22.36 150.262 23.448V32.024C150.262 32.92 150.433 33.528 150.774 33.848C151.137 34.168 151.734 34.328 152.566 34.328V35C152.203 34.9787 151.638 34.9573 150.87 34.936C150.102 34.8933 149.345 34.872 148.598 34.872C147.873 34.872 147.147 34.8933 146.422 34.936C145.718 34.9573 145.185 34.9787 144.822 35V34.328C145.547 34.328 146.059 34.168 146.358 33.848C146.657 33.528 146.806 32.92 146.806 32.024V22.552C146.806 21.9333 146.753 21.3787 146.646 20.888C146.539 20.376 146.315 19.9707 145.974 19.672C145.633 19.352 145.121 19.192 144.438 19.192C143.649 19.192 142.945 19.416 142.326 19.864C141.729 20.312 141.249 20.9307 140.886 21.72C140.545 22.488 140.374 23.352 140.374 24.312V32.024C140.374 32.92 140.523 33.528 140.822 33.848C141.142 34.168 141.654 34.328 142.358 34.328V35C142.017 34.9787 141.494 34.9573 140.79 34.936C140.107 34.8933 139.393 34.872 138.646 34.872C137.921 34.872 137.163 34.8933 136.374 34.936C135.585 34.9573 134.998 34.9787 134.614 35V34.328C135.446 34.328 136.033 34.168 136.374 33.848C136.737 33.528 136.918 32.92 136.918 32.024V21.976C136.918 21.016 136.758 20.312 136.438 19.864C136.118 19.3947 135.51 19.16 134.614 19.16V18.488C135.297 18.552 135.958 18.584 136.598 18.584C137.323 18.584 137.995 18.552 138.614 18.488C139.254 18.4027 139.841 18.2853 140.374 18.136V21.624C140.929 20.3013 141.686 19.3733 142.646 18.84C143.627 18.3067 144.662 18.04 145.75 18.04ZM159.847 18.04C160.701 18.04 161.437 18.1787 162.055 18.456C162.695 18.712 163.154 18.9467 163.431 19.16C164.135 19.7147 164.573 19.352 164.743 18.072H165.447C165.405 18.6693 165.373 19.3947 165.351 20.248C165.33 21.08 165.319 22.1893 165.319 23.576H164.615C164.487 22.7867 164.263 22.0187 163.943 21.272C163.645 20.5253 163.197 19.9067 162.599 19.416C162.023 18.9253 161.266 18.68 160.327 18.68C159.623 18.68 159.037 18.8827 158.567 19.288C158.098 19.672 157.863 20.248 157.863 21.016C157.863 21.656 158.055 22.2107 158.439 22.68C158.823 23.1493 159.314 23.5867 159.911 23.992C160.53 24.3973 161.191 24.8347 161.895 25.304C162.685 25.8373 163.389 26.3707 164.007 26.904C164.647 27.416 165.149 27.992 165.511 28.632C165.895 29.272 166.087 30.0187 166.087 30.872C166.087 31.8533 165.821 32.6853 165.287 33.368C164.775 34.0507 164.093 34.5733 163.239 34.936C162.386 35.2773 161.447 35.448 160.423 35.448C159.911 35.448 159.431 35.3947 158.983 35.288C158.535 35.2027 158.119 35.0853 157.735 34.936C157.501 34.808 157.266 34.68 157.031 34.552C156.818 34.4027 156.605 34.264 156.391 34.136C156.178 33.9867 155.986 34.008 155.815 34.2C155.645 34.392 155.517 34.7333 155.431 35.224H154.727C154.77 34.5413 154.802 33.7093 154.823 32.728C154.845 31.7467 154.855 30.4453 154.855 28.824H155.559C155.709 29.9973 155.933 31.032 156.231 31.928C156.53 32.824 156.967 33.528 157.543 34.04C158.141 34.5307 158.951 34.776 159.975 34.776C160.381 34.776 160.786 34.6907 161.191 34.52C161.597 34.328 161.927 34.0293 162.183 33.624C162.461 33.2187 162.599 32.6747 162.599 31.992C162.599 31.0533 162.269 30.2853 161.607 29.688C160.967 29.0693 160.135 28.4187 159.111 27.736C158.386 27.224 157.693 26.7227 157.031 26.232C156.391 25.72 155.869 25.1547 155.463 24.536C155.058 23.896 154.855 23.1387 154.855 22.264C154.855 21.304 155.079 20.5147 155.527 19.896C155.997 19.2773 156.615 18.8187 157.383 18.52C158.151 18.2 158.973 18.04 159.847 18.04Z" fill="white"/>
<path d="M52.832 49.304C53.344 49.304 53.8 49.412 54.2 49.628C54.6 49.836 54.916 50.152 55.148 50.576C55.38 51 55.496 51.516 55.496 52.124V56H54.416V52.28C54.416 51.624 54.252 51.124 53.924 50.78C53.604 50.428 53.168 50.252 52.616 50.252C52.048 50.252 51.596 50.436 51.26 50.804C50.924 51.164 50.756 51.688 50.756 52.376V56H49.676V52.28C49.676 51.624 49.512 51.124 49.184 50.78C48.864 50.428 48.428 50.252 47.876 50.252C47.308 50.252 46.856 50.436 46.52 50.804C46.184 51.164 46.016 51.688 46.016 52.376V56H44.924V49.424H46.016V50.372C46.232 50.028 46.52 49.764 46.88 49.58C47.248 49.396 47.652 49.304 48.092 49.304C48.644 49.304 49.132 49.428 49.556 49.676C49.98 49.924 50.296 50.288 50.504 50.768C50.688 50.304 50.992 49.944 51.416 49.688C51.84 49.432 52.312 49.304 52.832 49.304ZM56.8793 52.688C56.8793 52.016 57.0153 51.428 57.2873 50.924C57.5593 50.412 57.9313 50.016 58.4033 49.736C58.8833 49.456 59.4153 49.316 59.9993 49.316C60.5753 49.316 61.0753 49.44 61.4993 49.688C61.9233 49.936 62.2393 50.248 62.4473 50.624V49.424H63.5513V56H62.4473V54.776C62.2313 55.16 61.9073 55.48 61.4753 55.736C61.0513 55.984 60.5553 56.108 59.9873 56.108C59.4033 56.108 58.8753 55.964 58.4033 55.676C57.9313 55.388 57.5593 54.984 57.2873 54.464C57.0153 53.944 56.8793 53.352 56.8793 52.688ZM62.4473 52.7C62.4473 52.204 62.3473 51.772 62.1473 51.404C61.9473 51.036 61.6753 50.756 61.3313 50.564C60.9953 50.364 60.6233 50.264 60.2153 50.264C59.8073 50.264 59.4353 50.36 59.0993 50.552C58.7633 50.744 58.4953 51.024 58.2953 51.392C58.0953 51.76 57.9953 52.192 57.9953 52.688C57.9953 53.192 58.0953 53.632 58.2953 54.008C58.4953 54.376 58.7633 54.66 59.0993 54.86C59.4353 55.052 59.8073 55.148 60.2153 55.148C60.6233 55.148 60.9953 55.052 61.3313 54.86C61.6753 54.66 61.9473 54.376 62.1473 54.008C62.3473 53.632 62.4473 53.196 62.4473 52.7ZM64.9887 52.688C64.9887 52.016 65.1247 51.428 65.3967 50.924C65.6687 50.412 66.0407 50.016 66.5127 49.736C66.9927 49.456 67.5287 49.316 68.1207 49.316C68.6327 49.316 69.1087 49.436 69.5487 49.676C69.9887 49.908 70.3247 50.216 70.5567 50.6V47.12H71.6607V56H70.5567V54.764C70.3407 55.156 70.0207 55.48 69.5967 55.736C69.1727 55.984 68.6767 56.108 68.1087 56.108C67.5247 56.108 66.9927 55.964 66.5127 55.676C66.0407 55.388 65.6687 54.984 65.3967 54.464C65.1247 53.944 64.9887 53.352 64.9887 52.688ZM70.5567 52.7C70.5567 52.204 70.4567 51.772 70.2567 51.404C70.0567 51.036 69.7847 50.756 69.4407 50.564C69.1047 50.364 68.7327 50.264 68.3247 50.264C67.9167 50.264 67.5447 50.36 67.2087 50.552C66.8727 50.744 66.6047 51.024 66.4047 51.392C66.2047 51.76 66.1047 52.192 66.1047 52.688C66.1047 53.192 66.2047 53.632 66.4047 54.008C66.6047 54.376 66.8727 54.66 67.2087 54.86C67.5447 55.052 67.9167 55.148 68.3247 55.148C68.7327 55.148 69.1047 55.052 69.4407 54.86C69.7847 54.66 70.0567 54.376 70.2567 54.008C70.4567 53.632 70.5567 53.196 70.5567 52.7ZM79.506 52.46C79.506 52.668 79.494 52.888 79.47 53.12H74.214C74.254 53.768 74.474 54.276 74.874 54.644C75.282 55.004 75.774 55.184 76.35 55.184C76.822 55.184 77.214 55.076 77.526 54.86C77.846 54.636 78.07 54.34 78.198 53.972H79.374C79.198 54.604 78.846 55.12 78.318 55.52C77.79 55.912 77.134 56.108 76.35 56.108C75.726 56.108 75.166 55.968 74.67 55.688C74.182 55.408 73.798 55.012 73.518 54.5C73.238 53.98 73.098 53.38 73.098 52.7C73.098 52.02 73.234 51.424 73.506 50.912C73.778 50.4 74.158 50.008 74.646 49.736C75.142 49.456 75.71 49.316 76.35 49.316C76.974 49.316 77.526 49.452 78.006 49.724C78.486 49.996 78.854 50.372 79.11 50.852C79.374 51.324 79.506 51.86 79.506 52.46ZM78.378 52.232C78.378 51.816 78.286 51.46 78.102 51.164C77.918 50.86 77.666 50.632 77.346 50.48C77.034 50.32 76.686 50.24 76.302 50.24C75.75 50.24 75.278 50.416 74.886 50.768C74.502 51.12 74.282 51.608 74.226 52.232H78.378ZM84.7107 48.356C84.5027 48.356 84.3267 48.284 84.1827 48.14C84.0387 47.996 83.9667 47.82 83.9667 47.612C83.9667 47.404 84.0387 47.228 84.1827 47.084C84.3267 46.94 84.5027 46.868 84.7107 46.868C84.9107 46.868 85.0787 46.94 85.2147 47.084C85.3587 47.228 85.4307 47.404 85.4307 47.612C85.4307 47.82 85.3587 47.996 85.2147 48.14C85.0787 48.284 84.9107 48.356 84.7107 48.356ZM85.2387 49.424V56H84.1467V49.424H85.2387ZM90.3038 49.304C91.1038 49.304 91.7518 49.548 92.2478 50.036C92.7438 50.516 92.9918 51.212 92.9918 52.124V56H91.9118V52.28C91.9118 51.624 91.7478 51.124 91.4198 50.78C91.0918 50.428 90.6438 50.252 90.0758 50.252C89.4998 50.252 89.0398 50.432 88.6958 50.792C88.3598 51.152 88.1918 51.676 88.1918 52.364V56H87.0998V49.424H88.1918V50.36C88.4078 50.024 88.6998 49.764 89.0678 49.58C89.4438 49.396 89.8558 49.304 90.3038 49.304ZM99.0668 47.636V56H97.9748V47.636H99.0668ZM102.26 50.324V54.2C102.26 54.52 102.328 54.748 102.464 54.884C102.6 55.012 102.836 55.076 103.172 55.076H103.976V56H102.992C102.384 56 101.928 55.86 101.624 55.58C101.32 55.3 101.168 54.84 101.168 54.2V50.324H100.316V49.424H101.168V47.768H102.26V49.424H103.976V50.324H102.26ZM104.891 52.688C104.891 52.016 105.027 51.428 105.299 50.924C105.571 50.412 105.943 50.016 106.415 49.736C106.895 49.456 107.427 49.316 108.011 49.316C108.587 49.316 109.087 49.44 109.511 49.688C109.935 49.936 110.251 50.248 110.459 50.624V49.424H111.563V56H110.459V54.776C110.243 55.16 109.919 55.48 109.487 55.736C109.063 55.984 108.567 56.108 107.999 56.108C107.415 56.108 106.887 55.964 106.415 55.676C105.943 55.388 105.571 54.984 105.299 54.464C105.027 53.944 104.891 53.352 104.891 52.688ZM110.459 52.7C110.459 52.204 110.359 51.772 110.159 51.404C109.959 51.036 109.687 50.756 109.343 50.564C109.007 50.364 108.635 50.264 108.227 50.264C107.819 50.264 107.447 50.36 107.111 50.552C106.775 50.744 106.507 51.024 106.307 51.392C106.107 51.76 106.007 52.192 106.007 52.688C106.007 53.192 106.107 53.632 106.307 54.008C106.507 54.376 106.775 54.66 107.111 54.86C107.447 55.052 107.819 55.148 108.227 55.148C108.635 55.148 109.007 55.052 109.343 54.86C109.687 54.66 109.959 54.376 110.159 54.008C110.359 53.632 110.459 53.196 110.459 52.7ZM114.5 47.12V56H113.408V47.12H114.5ZM122.026 49.424L118.066 59.096H116.938L118.234 55.928L115.582 49.424H116.794L118.858 54.752L120.898 49.424H122.026Z" fill="white"/>
</svg>
